<?xml version="1.0" encoding="iso-8859-1"?>
<!-- Generator: Adobe Illustrator 19.0.0, SVG Export Plug-In . SVG Version: 6.00 Build 0)  -->
<svg version="1.1" id="Layer_1" xmlns="http://www.w3.org/2000/svg" xmlns:xlink="http://www.w3.org/1999/xlink" x="0px" y="0px"
	 viewBox="0 0 512 512" style="enable-background:new 0 0 512 512;" xml:space="preserve">
<path style="fill:#FFC36E;" d="M148.472,375.48c-13.484,0-22.46-11.081-20.049-24.749L161.83,161.27
	c2.4-13.612,15.35-24.749,28.778-24.749h292.966c13.427,0,22.451,11.137,20.049,24.749l-33.558,190.315
	c-2.327,13.197-14.767,23.896-27.786,23.896l0,0H148.472z"/>
<path style="fill:#FFB464;" d="M499.339,143.564c-0.009,0.003-0.016,0.009-0.025,0.012L361.1,255.435h-89.974l-98.675-111.662
	c-0.003,0.003-0.006,0.006-0.01,0.009l-0.137-0.155c-0.004-0.004-0.007-0.007-0.012-0.012c-5.322,4.5-9.249,10.758-10.465,17.654
	l-0.88,4.991l92.394,104.54l-120.657,97.627c3.633,4.351,9.153,7.054,15.786,7.054h293.808c6.404,0,12.656-2.608,17.646-6.811
	l-83.948-95.044l125.784-101.801l1.861-10.555C504.843,154.345,503.105,148.067,499.339,143.564z"/>
<path style="fill:#FFD782;" d="M483.572,136.52H190.606c-6.623,0-13.118,2.728-18.301,7.107L289.079,275.75
	c10.979,12.43,31.557,12.43,46.919,0l163.316-132.176C495.676,139.229,490.168,136.52,483.572,136.52z"/>
<path d="M505.448,138.386c-5.344-6.369-13.117-9.877-21.887-9.877H190.596c-17.459,0-33.565,13.779-36.667,31.369L120.522,349.34
	c-1.584,8.987,0.612,17.842,6.026,24.294c5.334,6.356,13.116,9.858,21.913,9.858h293.808c16.987,0,32.657-13.404,35.675-30.516
	l33.558-190.316C513.08,153.7,510.874,144.852,505.448,138.386z M483.562,144.531c0.592,0,1.166,0.044,1.732,0.109L330.949,269.523
	c-12,9.709-27.758,10.115-35.875,0.924L184.75,145.543c1.903-0.644,3.872-1.013,5.846-1.013H483.562z M136.3,352.122l33.407-189.461
	c0.432-2.45,1.352-4.806,2.637-6.962l87.738,99.335L136.037,355.401C136.018,354.343,136.102,353.246,136.3,352.122z M148.46,367.47
	c-0.593,0-1.169-0.043-1.735-0.107l123.973-100.309l12.366,14.001c7.057,7.989,17.15,12.003,27.831,12.003
	c10.226,0,20.99-3.682,30.131-11.078l18.446-14.926l87.967,99.594c-1.689,0.531-3.429,0.822-5.171,0.822H148.46V367.47z
	 M495.722,159.878l-33.558,190.315c-0.389,2.208-1.205,4.329-2.326,6.29l-87.899-99.517l124.04-100.363
	C496.002,157.662,495.92,158.757,495.722,159.878z"/>
<path d="M110.549,248.137H8.011c-4.424,0-8.011,3.587-8.011,8.011c0,4.424,3.587,8.011,8.011,8.011h102.538
	c4.424,0,8.011-3.587,8.011-8.011C118.56,251.723,114.973,248.137,110.549,248.137z"/>
<path d="M127.104,213.423c0-4.424-3.587-8.011-8.011-8.011H42.19c-4.424,0-8.011,3.587-8.011,8.011s3.587,8.011,8.011,8.011h76.904
	C123.518,221.434,127.104,217.847,127.104,213.423z"/>
<path d="M102.004,290.861H25.1c-4.424,0-8.011,3.587-8.011,8.011c0,4.424,3.587,8.011,8.011,8.011h76.903
	c4.424,0,8.011-3.587,8.011-8.011C110.015,294.448,106.428,290.861,102.004,290.861z"/>
</svg>
