<?xml version="1.0" encoding="iso-8859-1"?>
<!-- Generator: Adobe Illustrator 19.0.0, SVG Export Plug-In . SVG Version: 6.00 Build 0)  -->
<svg version="1.1" id="Layer_1" xmlns="http://www.w3.org/2000/svg" xmlns:xlink="http://www.w3.org/1999/xlink" x="0px" y="0px"
	 viewBox="0 0 398.468 398.468" style="enable-background:new 0 0 398.468 398.468;" xml:space="preserve">
<g>
	<g>
		<path style="fill:#C3C6C8;" d="M307.152,115.053c0-11.791-9.646-21.438-21.438-21.438H28.938c-11.79,0-21.438,9.646-21.438,21.438
			v160.499c0,11.791,9.648,21.438,21.438,21.438h256.776c11.791,0,21.438-9.646,21.438-21.438L307.152,115.053L307.152,115.053z"/>
		<path style="fill:#E8E8E8;" d="M157.326,173.618L7.5,269.463v6.089c0,11.791,9.648,21.438,21.438,21.438h256.776
			c11.791,0,21.438-9.646,21.438-21.438v-6.089L157.326,173.618z"/>
		<path style="fill:#E8E8E8;" d="M157.326,216.988l149.826-95.849v-6.087c0-11.791-9.646-21.438-21.438-21.438H28.938
			c-11.79,0-21.438,9.646-21.438,21.438v6.087L157.326,216.988z"/>
		<path style="fill:#AF8400;" d="M306,108.157l-148.675,95.108L8.651,108.157c-0.742,2.168-1.151,4.486-1.151,6.896v6.087
			l149.825,95.849l149.826-95.849v-6.087C307.152,112.644,306.743,110.325,306,108.157z"/>
	</g>
	<path style="fill:#AF8400;" d="M227.922,224.175l54.903-54.903c6.121-6.12,11.129-4.046,11.129,4.61v24.174h81.275
		c8.656,0,15.739,7.082,15.739,15.738v43.02c0,8.656-7.083,15.739-15.739,15.739h-81.275v24.173c0,8.657-5.008,10.73-11.129,4.61
		l-54.903-54.903C221.802,240.312,221.802,230.295,227.922,224.175z"/>
	<path style="fill:#071C2C;" d="M375.23,190.556h-60.578v-75.504c0-15.956-12.981-28.938-28.938-28.938H28.938
		C12.981,86.114,0,99.096,0,115.052v6.088c0,0.003,0,0.005,0,0.008v154.404c0,15.956,12.981,28.938,28.938,28.938h246.434l2.15,2.15
		c3.792,3.791,7.729,5.714,11.701,5.714c7.275,0,11.081-5.822,12.001-12.404c7.017-4.461,11.78-11.699,13.069-19.896h60.936
		c12.814,0,23.239-10.425,23.239-23.239v-43.02C398.469,200.98,388.044,190.556,375.23,190.556z M15,115.052
		c0-7.686,6.252-13.938,13.938-13.938h256.775c7.686,0,13.938,6.252,13.938,13.938v1.982l-142.326,91.049L15,117.034V115.052z
		 M299.652,134.841v30.353c-1.885-4.027-5.288-6.939-10.428-6.939c-3.973,0-7.909,1.923-11.702,5.714l-47.348,47.348l-25.034-16.015
		L299.652,134.841z M15,134.841l94.511,60.461L15,255.763V134.841z M28.938,289.489c-7.686,0-13.938-6.252-13.938-13.938v-1.983
		l108.428-69.364l29.855,19.1c1.232,0.788,2.637,1.183,4.042,1.183s2.81-0.395,4.042-1.183l29.855-19.099l28.486,18.223
		c-6.011,9.024-5.044,21.354,2.91,29.309l37.754,37.753H28.938V289.489z M383.469,256.813c0,4.543-3.696,8.239-8.239,8.239h-81.275
		c-4.143,0-7.5,3.357-7.5,7.5v21.806l-53.229-53.229c-3.213-3.212-3.213-8.438,0-11.65l53.229-53.229v21.807
		c0,4.143,3.357,7.5,7.5,7.5h81.275c4.543,0,8.239,3.695,8.239,8.238V256.813z"/>
</g>
<g>
</g>
<g>
</g>
<g>
</g>
<g>
</g>
<g>
</g>
<g>
</g>
<g>
</g>
<g>
</g>
<g>
</g>
<g>
</g>
<g>
</g>
<g>
</g>
<g>
</g>
<g>
</g>
<g>
</g>
</svg>
